<svg xmlns="http://www.w3.org/2000/svg" style="display: none;">

  <symbol id="icon-android" viewBox="0 0 1024 1024">
    <path d="M419.25341797 302.19546508c9.68994141 0 17.13043213-7.87307739 17.13043213-17.13043212s-7.44049073-17.13043213-17.13043213-17.13043213c-9.25735474 0-16.69784546 7.87307739-16.69784546 17.13043213s7.52700805 17.13043213 16.69784546 17.13043212z m185.49316406 0c9.25735474 0 16.69784546-7.87307739 16.69784546-17.13043212s-7.44049073-17.13043213-16.69784546-17.13043213c-9.68994141 0-17.13043213 7.87307739-17.13043213 17.13043213s7.44049073 17.13043213 17.13043213 17.13043212zM247.86257935 383.08917237c24.57092286 0 44.81597901 20.24505615 44.815979 44.81597899v188.95385743c0 25.09002685-19.81246948 45.24856568-44.815979 45.24856567-25.09002685 0-45.24856568-20.24505615-45.24856568-45.24856568V427.90515136c0-24.57092286 20.24505615-44.81597901 45.24856568-44.81597899z m465.89584351 8.39218139V684.16949463c0 26.82037354-21.54281617 48.36318969-47.93060304 48.36318969h-32.96310424v99.75448609c0 25.09002685-20.24505615 45.24856568-45.24856568 45.24856568-25.09002685 0-45.24856568-20.24505615-45.24856567-45.24856568V732.446167H481.7189331v99.75448608c0 25.09002685-20.24505615 45.24856568-45.24856567 45.24856567-24.57092286 0-44.81597901-20.24505615-44.815979-45.24856568l-0.43258667-99.75448607h-32.53051758c-26.82037354 0-48.36318969-21.54281617-48.3631897-48.36318971V391.48135376h403.43032837zM611.75448609 213.42868042c61.51382446 31.66534424 103.30169677 92.31399536 103.30169677 162.13348388H308.51123047c0-69.90600586 41.78787232-130.55465698 103.73428344-162.13348388l-31.23275756-57.5340271c-1.73034668-3.11462403-0.86517334-7.00790406 2.16293334-8.82476806 3.11462403-1.29776001 7.00790406-0.43258667 8.82476807 2.59552001l31.66534424 58.05313111c26.82037354-11.85287476 56.66885376-18.42819214 88.334198-18.42819214s61.51382446 6.57531739 88.334198 18.42819214l31.66534424-58.05313111c1.73034668-3.11462403 5.71014404-3.97979737 8.82476807-2.59552001 3.11462403 1.73034668 3.97979737 5.71014404 2.16293334 8.82476806l-31.23275756 57.5340271z m209.63150024 214.47647094v188.95385742c0 25.09002685-20.24505615 45.24856568-45.24856568 45.24856568-24.57092286 0-44.81597901-20.24505615-44.815979-45.24856568V427.90515136c0-25.09002685 20.24505615-44.81597901 44.815979-44.81597899 25.00350952 0 45.24856568 19.81246948 45.24856568 44.815979z"/>
  </symbol>

  <symbol id="icon-apple" viewBox="0 0 1024 1024">
    <path d="M820.75 677.35714287c-11.07142857 35-28.83928571 72.23214285-54.55357143 110.80357141-38.125 58.03571428-76.25000001 86.875-113.92857143 86.875-15.08928572 0-35.44642857-4.91071429-62.05357142-14.19642856-26.16071429-9.73214286-48.74999999-14.19642857-66.96428572-14.19642857-17.76785715 0-39.01785714 4.91071429-62.94642857 14.64285713-24.375 10.17857143-43.92857143 15.08928572-58.48214285 15.08928572-45.62500001 0-89.55357143-38.57142857-133.48214286-114.82142857-43.03571429-76.25000001-65.17857143-150.26785714-65.17857144-222.94642857 0-67.85714286 16.875-122.76785715 50.08928572-165.80357143 33.21428572-42.58928572 74.91071428-63.83928572 125.89285715-63.83928571 21.69642857 0 47.41071428 4.4642857 78.48214285 13.30357142 30.625 8.83928572 50.98214286 13.30357142 61.16071429 13.30357143 12.85714286 0 34.10714286-4.91071429 63.39285714-15.08928571 29.2857143-9.73214286 55-15.08928572 76.69642858-15.08928572 35.44642857 0 66.96428572 9.73214286 94.46428571 28.83928572 15.53571428 10.62499999 31.07142857 25.71428572 46.07142856 44.375-23.03571428 19.46428571-39.91071428 36.78571429-50.53571428 52.32142857C729.76785714 458.42857142 720.03571428 488.96428572 720.03571428 522.71428572c0 36.33928571 10.17857143 69.64285715 30.62500001 98.83928571s43.92857143 47.76785715 70.0892857 55.80357144zM654.05357143 157.35714285c0 18.21428572-4.4642857 38.57142857-12.85714286 60.26785715-8.83928572 22.14285714-22.58928572 42.58928572-41.24999999 61.16071429-15.98214285 15.98214285-31.87499999 26.60714286-47.85714287 31.875-10.17857143 3.125-25.26785714 5.80357143-46.07142857 7.49999999 0.89285715-43.92857143 12.4107143-82.05357143 34.55357143-113.92857143 22.14285714-31.87499999 59.37500001-53.66071429 110.80357143-65.625 0.89285715 4.01785714 1.78571427 7.05357143 2.23214286 9.73214286 0 3.21428572 0.44642858 5.89285714 0.44642857 9.01785714z"/>
  </symbol>

  <symbol id="icon-arrow-alt-right" viewBox="0 0 1024 1024">
    <path d="M604.36755372 802.12145997c-20.10498047 0-37.65563965-7.33337403-52.07519533-21.7529297s-21.75292969-33.04138184-21.75292968-55.12390136c0-22.164917 7.33337403-40.7043457 21.75292968-55.12390138l77.94799806-81.16149901H217.59387207c-20.92895508 0-38.89160156-7.74536133-53.31115723-22.98889161-14.25476075-15.07873536-21.50573731-33.20617676-21.5057373-53.88793944 0-20.6817627 7.25097656-38.80920411 21.5057373-53.88793946 14.41955567-15.24353028 32.38220215-22.98889161 53.31115724-22.9888916H629.82836914L550.23242188 353.796875c-14.3371582-14.3371582-21.67053223-32.87658692-21.67053224-55.04150391s7.33337403-40.7043457 21.7529297-55.12390137c14.41955567-14.41955567 32.29980469-21.75292969 53.06396484-21.75292969 20.76416016 0 38.64440918 7.33337403 53.06396484 21.75292969l0.16479492 0.24719239L859.71728516 457.04089355c14.25476075 14.25476075 21.58813477 32.79418945 21.58813476 54.95910645 0 20.76416016-7.33337403 38.64440918-21.75292969 53.06396484l-202.86254882 215.05737305c-14.66674805 14.66674805-32.21740723 22.00012208-52.3223877 22.00012208zM217.59387207 458.93603516c-14.3371582 0-26.11999512 5.10864258-36.00769043 15.57312012-10.1348877 10.71166992-14.99633789 22.90649414-14.99633789 37.49084472s4.94384766 26.86157227 14.99633789 37.49084472c9.88769531 10.46447754 21.67053223 15.57312012 36.00769044 15.57312012h468.59436034L569.34863281 686.76501465c-10.1348877 10.1348877-14.99633789 22.65930176-14.99633789 38.39721679 0 15.8203125 4.8614502 28.34472656 14.74914551 38.31481934 19.85778809 19.85778809 50.59204102 19.85778809 70.4498291 0L842.41381836 548.5020752c10.21728516-10.21728516 14.99633789-22.08251953 14.99633789-36.5020752 0-15.8203125-4.8614502-28.34472656-14.74914551-38.31481934L639.55126953 260.44055175c-9.88769531-9.88769531-21.75292969-14.66674805-36.17248535-14.66674803s-26.28479004 4.8614502-36.25488282 14.83154296c-9.97009278 9.88769531-14.74914551 22.32971192-14.7491455 38.15002441s4.8614502 28.34472656 14.7491455 38.31481934l119.39392091 121.86584473H217.59387207z"/>
  </symbol>

  <symbol id="icon-arrow-right" viewBox="0 0 1024 1024">
    <path d="M555.875 819.96875c-12.234375 0-22.359375-4.640625-30.375-13.5-8.4375-8.4375-12.234375-18.140625-11.8125-29.53125 0.421875-11.390625 4.640625-21.09375 12.65625-29.53125l205.875-198.28125H186.3125c-10.96875 0-20.25-3.796875-28.6875-11.390625-8.4375-7.59375-12.65625-16.875-13.5-27.421875-0.84375-12.234375 3.375-22.78125 11.8125-31.21875 8.4375-8.859375 18.984375-13.5 30.796875-13.5h546.75l-205.875-198.28125c-8.859375-8.4375-13.5-18.140625-13.5-29.53125s3.796875-21.515625 11.8125-29.953125 17.71875-12.65625 29.109375-12.65625 21.515625 3.796875 30.375 11.390625L866.375 476.984375c8.859375 8.4375 13.5 18.140625 13.5 29.953125s-4.640625 21.9375-13.5 29.953125l-281.8125 271.265625c-8.4375 8.015625-18.140625 11.8125-28.6875 11.8125z"/>
  </symbol>

</svg>