<svg xmlns="http://www.w3.org/2000/svg" viewBox="0 0 1024 1024" width="200" height="200">
    <path fill="#515151" d="M419.25341797 302.19546508c9.68994141 0 17.13043213-7.87307739 17.13043213-17.13043212s-7.44049073-17.13043213-17.13043213-17.13043213c-9.25735474 0-16.69784546 7.87307739-16.69784546 17.13043213s7.52700805 17.13043213 16.69784546 17.13043212z m185.49316406 0c9.25735474 0 16.69784546-7.87307739 16.69784546-17.13043212s-7.44049073-17.13043213-16.69784546-17.13043213c-9.68994141 0-17.13043213 7.87307739-17.13043213 17.13043213s7.44049073 17.13043213 17.13043213 17.13043212zM247.86257935 383.08917237c24.57092286 0 44.81597901 20.24505615 44.815979 44.81597899v188.95385743c0 25.09002685-19.81246948 45.24856568-44.815979 45.24856567-25.09002685 0-45.24856568-20.24505615-45.24856568-45.24856568V427.90515136c0-24.57092286 20.24505615-44.81597901 45.24856568-44.81597899z m465.89584351 8.39218139V684.16949463c0 26.82037354-21.54281617 48.36318969-47.93060304 48.36318969h-32.96310424v99.75448609c0 25.09002685-20.24505615 45.24856568-45.24856568 45.24856568-25.09002685 0-45.24856568-20.24505615-45.24856567-45.24856568V732.446167H481.7189331v99.75448608c0 25.09002685-20.24505615 45.24856568-45.24856567 45.24856567-24.57092286 0-44.81597901-20.24505615-44.815979-45.24856568l-0.43258667-99.75448607h-32.53051758c-26.82037354 0-48.36318969-21.54281617-48.3631897-48.36318971V391.48135376h403.43032837zM611.75448609 213.42868042c61.51382446 31.66534424 103.30169677 92.31399536 103.30169677 162.13348388H308.51123047c0-69.90600586 41.78787232-130.55465698 103.73428344-162.13348388l-31.23275756-57.5340271c-1.73034668-3.11462403-0.86517334-7.00790406 2.16293334-8.82476806 3.11462403-1.29776001 7.00790406-0.43258667 8.82476807 2.59552001l31.66534424 58.05313111c26.82037354-11.85287476 56.66885376-18.42819214 88.334198-18.42819214s61.51382446 6.57531739 88.334198 18.42819214l31.66534424-58.05313111c1.73034668-3.11462403 5.71014404-3.97979737 8.82476807-2.59552001 3.11462403 1.73034668 3.97979737 5.71014404 2.16293334 8.82476806l-31.23275756 57.5340271z m209.63150024 214.47647094v188.95385742c0 25.09002685-20.24505615 45.24856568-45.24856568 45.24856568-24.57092286 0-44.81597901-20.24505615-44.815979-45.24856568V427.90515136c0-25.09002685 20.24505615-44.81597901 44.815979-44.81597899 25.00350952 0 45.24856568 19.81246948 45.24856568 44.815979z"/>
</svg>