<svg xmlns="http://www.w3.org/2000/svg" viewBox="0 0 1024 1024" width="200" height="200">
    <path fill="#515151" d="M820.75 677.35714287c-11.07142857 35-28.83928571 72.23214285-54.55357143 110.80357141-38.125 58.03571428-76.25000001 86.875-113.92857143 86.875-15.08928572 0-35.44642857-4.91071429-62.05357142-14.19642856-26.16071429-9.73214286-48.74999999-14.19642857-66.96428572-14.19642857-17.76785715 0-39.01785714 4.91071429-62.94642857 14.64285713-24.375 10.17857143-43.92857143 15.08928572-58.48214285 15.08928572-45.62500001 0-89.55357143-38.57142857-133.48214286-114.82142857-43.03571429-76.25000001-65.17857143-150.26785714-65.17857144-222.94642857 0-67.85714286 16.875-122.76785715 50.08928572-165.80357143 33.21428572-42.58928572 74.91071428-63.83928572 125.89285715-63.83928571 21.69642857 0 47.41071428 4.4642857 78.48214285 13.30357142 30.625 8.83928572 50.98214286 13.30357142 61.16071429 13.30357143 12.85714286 0 34.10714286-4.91071429 63.39285714-15.08928571 29.2857143-9.73214286 55-15.08928572 76.69642858-15.08928572 35.44642857 0 66.96428572 9.73214286 94.46428571 28.83928572 15.53571428 10.62499999 31.07142857 25.71428572 46.07142856 44.375-23.03571428 19.46428571-39.91071428 36.78571429-50.53571428 52.32142857C729.76785714 458.42857142 720.03571428 488.96428572 720.03571428 522.71428572c0 36.33928571 10.17857143 69.64285715 30.62500001 98.83928571s43.92857143 47.76785715 70.0892857 55.80357144zM654.05357143 157.35714285c0 18.21428572-4.4642857 38.57142857-12.85714286 60.26785715-8.83928572 22.14285714-22.58928572 42.58928572-41.24999999 61.16071429-15.98214285 15.98214285-31.87499999 26.60714286-47.85714287 31.875-10.17857143 3.125-25.26785714 5.80357143-46.07142857 7.49999999 0.89285715-43.92857143 12.4107143-82.05357143 34.55357143-113.92857143 22.14285714-31.87499999 59.37500001-53.66071429 110.80357143-65.625 0.89285715 4.01785714 1.78571427 7.05357143 2.23214286 9.73214286 0 3.21428572 0.44642858 5.89285714 0.44642857 9.01785714z"/>
</svg>