<svg xmlns="http://www.w3.org/2000/svg" viewBox="0 0 1024 1024" width="200" height="200">
    <path fill="#515151" d="M604.36755372 802.12145997c-20.10498047 0-37.65563965-7.33337403-52.07519533-21.7529297s-21.75292969-33.04138184-21.75292968-55.12390136c0-22.164917 7.33337403-40.7043457 21.75292968-55.12390138l77.94799806-81.16149901H217.59387207c-20.92895508 0-38.89160156-7.74536133-53.31115723-22.98889161-14.25476075-15.07873536-21.50573731-33.20617676-21.5057373-53.88793944 0-20.6817627 7.25097656-38.80920411 21.5057373-53.88793946 14.41955567-15.24353028 32.38220215-22.98889161 53.31115724-22.9888916H629.82836914L550.23242188 353.796875c-14.3371582-14.3371582-21.67053223-32.87658692-21.67053224-55.04150391s7.33337403-40.7043457 21.7529297-55.12390137c14.41955567-14.41955567 32.29980469-21.75292969 53.06396484-21.75292969 20.76416016 0 38.64440918 7.33337403 53.06396484 21.75292969l0.16479492 0.24719239L859.71728516 457.04089355c14.25476075 14.25476075 21.58813477 32.79418945 21.58813476 54.95910645 0 20.76416016-7.33337403 38.64440918-21.75292969 53.06396484l-202.86254882 215.05737305c-14.66674805 14.66674805-32.21740723 22.00012208-52.3223877 22.00012208zM217.59387207 458.93603516c-14.3371582 0-26.11999512 5.10864258-36.00769043 15.57312012-10.1348877 10.71166992-14.99633789 22.90649414-14.99633789 37.49084472s4.94384766 26.86157227 14.99633789 37.49084472c9.88769531 10.46447754 21.67053223 15.57312012 36.00769044 15.57312012h468.59436034L569.34863281 686.76501465c-10.1348877 10.1348877-14.99633789 22.65930176-14.99633789 38.39721679 0 15.8203125 4.8614502 28.34472656 14.74914551 38.31481934 19.85778809 19.85778809 50.59204102 19.85778809 70.4498291 0L842.41381836 548.5020752c10.21728516-10.21728516 14.99633789-22.08251953 14.99633789-36.5020752 0-15.8203125-4.8614502-28.34472656-14.74914551-38.31481934L639.55126953 260.44055175c-9.88769531-9.88769531-21.75292969-14.66674805-36.17248535-14.66674803s-26.28479004 4.8614502-36.25488282 14.83154296c-9.97009278 9.88769531-14.74914551 22.32971192-14.7491455 38.15002441s4.8614502 28.34472656 14.7491455 38.31481934l119.39392091 121.86584473H217.59387207z"/>
</svg>