<svg xmlns="http://www.w3.org/2000/svg" viewBox="0 0 1024 1024" width="200" height="200">
    <path fill="#515151" d="M555.875 819.96875c-12.234375 0-22.359375-4.640625-30.375-13.5-8.4375-8.4375-12.234375-18.140625-11.8125-29.53125 0.421875-11.390625 4.640625-21.09375 12.65625-29.53125l205.875-198.28125H186.3125c-10.96875 0-20.25-3.796875-28.6875-11.390625-8.4375-7.59375-12.65625-16.875-13.5-27.421875-0.84375-12.234375 3.375-22.78125 11.8125-31.21875 8.4375-8.859375 18.984375-13.5 30.796875-13.5h546.75l-205.875-198.28125c-8.859375-8.4375-13.5-18.140625-13.5-29.53125s3.796875-21.515625 11.8125-29.953125 17.71875-12.65625 29.109375-12.65625 21.515625 3.796875 30.375 11.390625L866.375 476.984375c8.859375 8.4375 13.5 18.140625 13.5 29.953125s-4.640625 21.9375-13.5 29.953125l-281.8125 271.265625c-8.4375 8.015625-18.140625 11.8125-28.6875 11.8125z"/>
</svg>